<?xml version="1.0" standalone="no"?>
<!DOCTYPE svg PUBLIC "-//W3C//DTD SVG 20010904//EN"
 "http://www.w3.org/TR/2001/REC-SVG-20010904/DTD/svg10.dtd">
<svg version="1.0" xmlns="http://www.w3.org/2000/svg"
 width="400.000000pt" height="400.000000pt" viewBox="0 0 400.000000 400.000000"
 preserveAspectRatio="xMidYMid meet">
<metadata>
Created by potrace 1.11, written by Peter Selinger 2001-2013
</metadata>
<g transform="translate(0.000000,400.000000) scale(0.100000,-0.100000)"
fill="#000000" stroke="none">
<path d="M960 3656 c0 -3 225 -394 500 -871 275 -476 500 -870 500 -877 0 -12
-26 -58 -438 -770 -155 -268 -282 -491 -282 -494 0 -11 164 -294 170 -293 3 0
165 277 360 615 195 339 398 691 451 782 699 1211 1095 1897 1097 1904 2 4
-528 8 -1177 8 -650 0 -1181 -2 -1181 -4z m1840 -300 c0 -5 -618 -1079 -647
-1124 -14 -23 -27 -3 -340 540 -179 310 -327 569 -330 576 -4 9 131 12 656 12
364 0 661 -2 661 -4z"/>
<path d="M2293 1269 c-101 -168 -524 -911 -521 -914 3 -3 248 -4 546 -3 l540
3 -260 450 c-143 248 -265 461 -272 474 l-13 23 -20 -33z"/>
</g>
</svg>
